<svg width="22" height="22" fill="none" xmlns="http://www.w3.org/2000/svg"><path d="M7.19 2.329c-1.145-.29-2.344-.167-3.283.358-.957.535-1.628 1.483-1.661 2.751-.05 1.983.408 4.642 2.23 7.764 1.798 3.083 3.784 4.932 5.431 6.03 1.041.693 2.19.712 3.173.26.968-.445 1.753-1.335 2.161-2.439a2.023 2.023 0 00-.132-1.69l-1.05-1.873a2.75 2.75 0 00-3.38-1.224l-.733.28c-.355.136-.682.073-.867-.11-.621-.61-1.066-1.438-1.267-2.331-.064-.282.066-.614.376-.849l.661-.499a2.75 2.75 0 00.73-3.563L8.508 3.33a2.122 2.122 0 00-1.32-1.001zM3.345 5.467c.022-.851.453-1.46 1.098-1.82.662-.371 1.566-.484 2.475-.253.27.068.498.241.637.482l1.068 1.865a1.65 1.65 0 01-.437 2.137l-.661.5c-.572.43-.968 1.17-.788 1.967.244 1.08.785 2.105 1.57 2.876.574.563 1.393.596 2.03.352l.733-.28a1.65 1.65 0 012.03.734l1.048 1.873a.922.922 0 01.06.77c-.319.864-.918 1.512-1.589 1.821-.657.303-1.4.294-2.102-.176-1.508-1.005-3.377-2.73-5.093-5.668C3.708 9.7 3.3 7.242 3.347 5.468l-.001-.001zM14.018 2.27a.55.55 0 00-.534.96l.422.236a9.35 9.35 0 014.763 7.243l.035.346a.55.55 0 101.094-.11l-.034-.345a10.45 10.45 0 00-5.324-8.096l-.421-.235z" fill="#F6A6BF"/><path d="M12.729 5.217a.55.55 0 01.754-.188l.137.082a7.15 7.15 0 013.374 4.955l.049.294a.549.549 0 11-1.085.181l-.05-.293a6.05 6.05 0 00-2.854-4.194l-.136-.082a.55.55 0 01-.19-.755z" fill="#F6A6BF"/></svg>