<svg width="23" height="23" fill="none" xmlns="http://www.w3.org/2000/svg"><path d="M11.5 1.438C5.943 1.438 1.437 5.942 1.437 11.5c0 5.557 4.506 10.063 10.063 10.063S21.563 17.056 21.563 11.5 17.056 1.437 11.5 1.437zm0 18.418A8.357 8.357 0 013.145 11.5 8.357 8.357 0 0111.5 3.145a8.357 8.357 0 018.355 8.355 8.357 8.357 0 01-8.355 8.355z" fill="#F6A6BF"/><path d="M15.424 14.344l-3.203-2.316v-5.56a.18.18 0 00-.18-.179h-1.08a.18.18 0 00-.18.18v6.186a.18.18 0 00.074.146l3.715 2.708c.081.059.194.04.252-.038l.642-.876a.18.18 0 00-.04-.252z" fill="#F6A6BF"/></svg>