<svg width="50" height="50" fill="none" xmlns="http://www.w3.org/2000/svg"><path d="M12.424 45h23.2a4.289 4.289 0 004.288-4.29V21.685c4.025-.16 6.432-4.625 4.282-8.095l-1.255-2.025a5.3 5.3 0 00-4.505-2.51h-3.587v-1.59A2.464 2.464 0 0032.382 5a6.112 6.112 0 00-6.11 6.115v8.64c-3.195.315-5.608 1.825-7.38 3.955-1.955 2.35-3.108 5.412-3.793 8.355-.69 2.955-.932 5.895-1.007 8.08-.03.935-.03 1.74-.02 2.355h-1.648a4.927 4.927 0 01-3.6-8.292l2.3-2.468a8.972 8.972 0 00-.215-12.46l-2.257-2.258a1.25 1.25 0 10-1.768 1.768l2.258 2.258a6.467 6.467 0 01.155 8.987l-2.3 2.467A7.433 7.433 0 0012.424 45zM32.35 7.5v2.805a1.25 1.25 0 001.25 1.25h4.835c.97 0 1.87.5 2.38 1.325l1.258 2.027a2.804 2.804 0 01-2.383 4.283h-1.025a1.25 1.25 0 00-1.25 1.25v20.27c0 .987-.8 1.79-1.79 1.79h-1.79v-1.79a7.33 7.33 0 00-7.325-7.333h-2.535a1.25 1.25 0 000 2.5h2.533a4.83 4.83 0 014.83 4.833v1.79H16.572c-.013-.585-.013-1.36.017-2.273.07-2.09.3-4.85.943-7.594.642-2.76 1.675-5.398 3.28-7.326 1.567-1.877 3.695-3.112 6.71-3.112a1.25 1.25 0 001.25-1.25v-9.83A3.612 3.612 0 0132.347 7.5h.002z" fill="#F6A6BF"/></svg>