<svg width="25" height="25" fill="none" xmlns="http://www.w3.org/2000/svg"><path fill-rule="evenodd" clip-rule="evenodd" d="M8.082 6.008a6.23 6.23 0 014.419-1.841c1.656 0 3.245.661 4.418 1.84a6.311 6.311 0 011.832 4.45c0 2.878-1.596 5.483-3.259 7.406a21.562 21.562 0 01-2.991 2.841 21.563 21.563 0 01-2.992-2.84c-1.663-1.924-3.258-4.53-3.258-7.407 0-1.67.659-3.27 1.831-4.45zm4.119 15.772l.3-.426.3.426a.522.522 0 01-.6 0zm0 0l.3-.426.3.426.002-.001.005-.004.016-.012.061-.044c.052-.039.128-.095.224-.169.192-.147.463-.363.788-.64a22.598 22.598 0 002.383-2.365c1.723-1.993 3.512-4.837 3.512-8.089a7.353 7.353 0 00-2.134-5.182A7.272 7.272 0 0012.5 3.125a7.272 7.272 0 00-5.158 2.148 7.353 7.353 0 00-2.134 5.184c0 3.25 1.79 6.095 3.512 8.088a22.604 22.604 0 003.171 3.005c.094.072.19.144.285.213l.017.012.005.004h.002zm-1.784-11.363a2.083 2.083 0 114.167 0 2.083 2.083 0 01-4.167 0zm2.084-3.125a3.125 3.125 0 100 6.25 3.125 3.125 0 000-6.25z" fill="#F6A6BF"/></svg>