<svg width="45" height="45" fill="none" xmlns="http://www.w3.org/2000/svg"><path d="M11.908 3.48c-2.75.396-4.658 1.126-6.477 2.497C1.177 9.167-.792 14.502.316 19.828c.474 2.32 1.696 4.702 3.26 6.372.44.466 3.806 3.279 9.387 7.849 4.79 3.911 8.833 7.207 9 7.321.422.29.712.255 1.213-.123.228-.176 4.184-3.401 8.78-7.163 5.977-4.887 8.613-7.102 9.237-7.743 1.82-1.89 2.98-4.122 3.551-6.83.29-1.335.29-3.858 0-5.185-.536-2.54-1.635-4.737-3.278-6.565-1.934-2.162-4.201-3.463-7.102-4.078-1.256-.273-3.665-.29-4.965-.044a12.922 12.922 0 00-6.24 3.014l-.713.616-.641-.607c-1.53-1.432-3.639-2.478-5.977-2.98-.817-.166-3.26-.298-3.92-.201zm3.006 1.846c.51.07 1.327.264 1.828.43 1.75.572 2.953 1.31 4.43 2.725.914.87.984.923 1.336.923.352 0 .413-.044 1.257-.87 1.775-1.74 3.419-2.628 5.765-3.137 1.029-.229 3.428-.229 4.465 0 2.364.51 4.272 1.564 5.906 3.269.923.958 1.468 1.714 2.013 2.786 1.38 2.707 1.661 6.126.747 9.062-.589 1.863-1.441 3.322-2.742 4.658-.325.334-4.377 3.709-9.018 7.497l-8.42 6.89-.413-.342c-.22-.185-4.087-3.349-8.587-7.023-5.15-4.21-8.375-6.908-8.7-7.277-1.39-1.573-2.303-3.393-2.778-5.564-.281-1.248-.272-3.638 0-4.921.36-1.662 1.01-3.164 1.925-4.43.589-.817 1.722-1.995 2.443-2.54 2.417-1.828 5.467-2.593 8.543-2.136z" fill="#F6A6BF"/><path d="M17.534 10.934c-2.153.518-3.287 2.944-2.312 4.957.273.57 1.064 1.344 1.697 1.643.474.238.615.255 1.45.264.817 0 .976-.026 1.433-.237.703-.334 1.415-1.029 1.757-1.732.255-.536.282-.642.273-1.459 0-1.125-.211-1.687-.87-2.4a3.484 3.484 0 00-3.428-1.036zm1.837 1.96c.685.483.94 1.415.589 2.18-.668 1.45-2.857 1.291-3.27-.247-.184-.703.07-1.52.607-1.89.632-.439 1.485-.457 2.074-.043zm6.468-1.996c-1.02.22-1.951.958-2.408 1.934-.255.527-.273.642-.273 1.494 0 .853.018.967.273 1.494.73 1.547 2.505 2.356 4.13 1.899a3.61 3.61 0 002.33-2.136c.413-1.055.21-2.487-.484-3.393-.773-1.02-2.276-1.555-3.568-1.292zm1.45 1.837c.712.317 1.187 1.152 1.055 1.846-.159.835-.747 1.406-1.53 1.485a1.75 1.75 0 01-1.388-.448c-.396-.343-.554-.72-.554-1.292 0-1.274 1.274-2.11 2.417-1.59zm-15.556 3.991c-.923.307-1.556.843-1.925 1.634-.272.598-.263 1.995.018 2.567.325.659.765 1.098 1.406 1.415.527.264.66.29 1.38.29.73 0 .835-.027 1.345-.299.659-.36 1.098-.826 1.406-1.494.334-.703.325-1.688 0-2.4-.308-.659-.861-1.239-1.45-1.538-.58-.28-1.609-.36-2.18-.175zm1.398 1.766c.852.352.975 1.635.21 2.171-.351.255-.931.317-1.274.132-.483-.246-.73-.624-.73-1.125 0-.993.87-1.565 1.794-1.178zm18.139-1.678c-.852.36-1.423.957-1.748 1.801-.387 1.029-.08 2.39.712 3.182 1.283 1.283 3.56 1.099 4.614-.387.589-.826.72-2.083.325-2.98-.255-.562-.914-1.247-1.494-1.529-.703-.342-1.714-.378-2.408-.087zm1.785 1.757c.826.554.773 1.75-.105 2.189-1.108.571-2.303-.695-1.662-1.758.378-.615 1.187-.817 1.767-.43zm-11.321.949c-3.533.335-6.495 2.883-7.514 6.46-.159.563-.194.923-.202 1.925 0 1.204.008 1.24.28 1.828.537 1.134 1.697 1.995 2.901 2.171.37.053 1.204 0 2.997-.175l2.479-.255 2.048.22c2.575.272 3.383.29 3.99.052 1.098-.422 1.784-1.037 2.25-2.021.677-1.442.29-4.07-.879-6.02-.475-.783-1.468-1.9-2.224-2.48-1.696-1.309-3.902-1.915-6.126-1.705zm2.567 1.934c3.006.73 5.23 3.49 5.23 6.495 0 .914-.194 1.38-.774 1.82-.607.465-.87.474-3.639.193l-2.478-.255-2.496.255c-2.163.22-2.558.246-2.927.15-.94-.247-1.486-1.029-1.486-2.119 0-3.401 2.743-6.38 6.18-6.715a6.69 6.69 0 012.39.176z" fill="#F6A6BF"/></svg>