<svg width="30" height="30" fill="none" xmlns="http://www.w3.org/2000/svg"><path d="M14.999 8.991A6 6 0 008.99 15 6 6 0 0015 21.009 6 6 0 0021.008 15a6 6 0 00-6.01-6.009zm0 9.914A3.914 3.914 0 0111.094 15a3.914 3.914 0 013.905-3.905A3.914 3.914 0 0118.904 15 3.914 3.914 0 0115 18.905zm6.255-11.56a1.402 1.402 0 100 2.806 1.4 1.4 0 001.297-1.94 1.402 1.402 0 00-1.297-.866zM26.712 15c0-1.617.015-3.22-.076-4.834-.091-1.875-.519-3.54-1.89-4.91-1.374-1.374-3.035-1.799-4.91-1.89-1.617-.09-3.22-.076-4.834-.076-1.617 0-3.22-.015-4.834.076-1.875.091-3.54.519-4.91 1.89-1.374 1.374-1.8 3.035-1.89 4.91-.09 1.617-.076 3.22-.076 4.834 0 1.614-.015 3.22.076 4.834.09 1.875.519 3.539 1.89 4.91 1.374 1.374 3.035 1.799 4.91 1.89 1.617.09 3.22.076 4.834.076 1.617 0 3.22.015 4.834-.076 1.875-.091 3.539-.519 4.91-1.89 1.374-1.374 1.799-3.035 1.89-4.91.093-1.614.076-3.217.076-4.834zm-2.578 6.908a3.724 3.724 0 01-.885 1.342c-.413.413-.809.67-1.342.885-1.54.612-5.2.474-6.908.474-1.708 0-5.37.138-6.911-.471a3.723 3.723 0 01-1.342-.885 3.748 3.748 0 01-.885-1.342c-.61-1.544-.471-5.203-.471-6.911 0-1.708-.138-5.37.471-6.911.214-.533.472-.932.885-1.342.413-.41.809-.67 1.342-.885 1.54-.61 5.203-.471 6.91-.471 1.709 0 5.371-.138 6.912.471.533.214.932.472 1.342.885.413.413.67.809.885 1.342.609 1.54.471 5.203.471 6.911 0 1.708.138 5.367-.474 6.908z" fill="#fff"/></svg>